<svg width="49" height="133" viewBox="0 0 49 133" fill="none" xmlns="http://www.w3.org/2000/svg">
<mask id="path-1-inside-1_1_440" fill="white">
<path fill-rule="evenodd" clip-rule="evenodd" d="M42.502 0L0.671326 66.5002L42.502 133H48.9375V6.19888e-06L42.502 0Z"/>
</mask>
<path fill-rule="evenodd" clip-rule="evenodd" d="M42.502 0L0.671326 66.5002L42.502 133H48.9375V6.19888e-06L42.502 0Z" fill="#2A6A2C"/>
<path d="M0.671326 66.5002L-0.175136 65.9677L-0.510064 66.5002L-0.175134 67.0326L0.671326 66.5002ZM42.502 0L42.502 -1L41.9496 -1L41.6555 -0.53245L42.502 0ZM42.502 133L41.6555 133.532L41.9496 134H42.502V133ZM48.9375 133V134H49.9375V133H48.9375ZM48.9375 6.19888e-06H49.9375V-0.999993L48.9375 -0.999994L48.9375 6.19888e-06ZM1.51779 67.0326L43.3484 0.53245L41.6555 -0.53245L-0.175136 65.9677L1.51779 67.0326ZM43.3484 132.468L1.51779 65.9677L-0.175134 67.0326L41.6555 133.532L43.3484 132.468ZM48.9375 132H42.502V134H48.9375V132ZM47.9375 6.19888e-06V133H49.9375V6.19888e-06H47.9375ZM42.502 1L48.9375 1.00001L48.9375 -0.999994L42.502 -1L42.502 1Z" fill="white" mask="url(#path-1-inside-1_1_440)"/>
</svg>
