<svg width="48" height="47" viewBox="0 0 48 47" fill="none" xmlns="http://www.w3.org/2000/svg">
<path opacity="0.2" d="M8.55342 45.4105H39.7354C43.2169 45.4105 46.055 42.5724 46.055 39.0909V7.90893C46.055 4.42745 43.2169 1.58928 39.7354 1.58928H8.55342C5.07194 1.58928 2.2338 4.42745 2.2338 7.90893V39.0909C2.2338 42.5913 5.05302 45.4105 8.55342 45.4105Z" fill="url(#paint0_linear_1_44)"/>
<path opacity="0.6" d="M39.7354 1.58937C43.2169 1.58937 46.055 4.42753 46.055 7.90902V39.091C46.055 42.5725 43.2169 45.4106 39.7354 45.4106H8.55341C5.07193 45.4106 2.23379 42.5725 2.23379 39.091V7.90902C2.23379 4.42753 5.07193 1.58937 8.55341 1.58937H39.7354ZM39.7354 0H8.55341C4.20156 0 0.644409 3.53824 0.644409 7.90902V39.091C0.644409 43.4428 4.18264 47 8.55341 47H39.7354C44.0872 47 47.6444 43.4618 47.6444 39.091V7.90902C47.6444 3.55716 44.1062 0 39.7354 0Z" fill="#554A44"/>
<path d="M22.0603 16.4573C21.5305 15.9218 21.2656 15.2752 21.2656 14.5176C21.2656 13.7599 21.5305 13.1162 22.0603 12.5864C22.5958 12.0509 23.2424 11.7832 24 11.7832C24.7576 11.7832 25.4014 12.0509 25.9312 12.5864C26.4666 13.1162 26.7344 13.7599 26.7344 14.5176C26.7344 15.2752 26.4666 15.9218 25.9312 16.4573C25.4014 16.9871 24.7576 17.252 24 17.252C23.2424 17.252 22.5958 16.9871 22.0603 16.4573ZM19.8984 18.2773H26.3926V31.2656H28.1016V34H19.8984V31.2656H21.6074V21.0117H19.8984V18.2773Z" fill="#ADADAD" fill-opacity="0.5"/>
<defs>
<linearGradient id="paint0_linear_1_44" x1="24.1472" y1="45.4148" x2="24.1472" y2="1.5847" gradientUnits="userSpaceOnUse">
<stop/>
<stop offset="1"/>
</linearGradient>
</defs>
</svg>
