<svg width="224" height="60" viewBox="0 0 224 60" fill="none" xmlns="http://www.w3.org/2000/svg">
<path opacity="0.4" d="M37.634 57.9708H186.01C202.576 57.9708 216.081 54.3476 216.081 49.9031V10.0722C216.081 5.62776 202.576 2.00458 186.01 2.00458H37.634C21.0678 2.00458 7.56274 5.62776 7.56274 10.0722V49.879C7.56274 54.3476 20.9777 57.9708 37.634 57.9708Z" fill="url(#paint0_linear_1_2333)"/>
<path opacity="0.6" d="M186.01 2.00483C202.576 2.00483 216.082 5.62802 216.082 10.0725V49.8792C216.082 54.3237 202.576 57.9469 186.01 57.9469H37.6341C21.0679 57.9469 7.56287 54.3237 7.56287 49.8792V10.0725C7.56287 5.62802 21.0679 2.00483 37.6341 2.00483H186.01ZM186.01 0H37.6341C16.9263 0 0 4.51691 0 10.0966V49.9034C0 55.4589 16.8363 60 37.6341 60H186.01C206.718 60 223.644 55.4831 223.644 49.9034V10.0725C223.644 4.5169 206.808 0 186.01 0Z" fill="white"/>
<defs>
<linearGradient id="paint0_linear_1_2333" x1="111.835" y1="57.9667" x2="111.835" y2="2.0134" gradientUnits="userSpaceOnUse">
<stop/>
<stop offset="1"/>
</linearGradient>
</defs>
</svg>
