<svg width="133" height="62" viewBox="0 0 133 62" fill="none" xmlns="http://www.w3.org/2000/svg">
<path opacity="0.4" d="M22.3209 59.9128H110.323C120.149 59.9128 128.159 56.1855 128.159 51.6133V10.6623C128.159 6.09013 120.149 2.36279 110.323 2.36279H22.3209C12.4953 2.36279 4.48547 6.09013 4.48547 10.6623V51.6133C4.48547 56.2103 12.4419 59.9128 22.3209 59.9128Z" fill="url(#paint0_linear_1_49)"/>
<path opacity="0.6" d="M110.323 2.36269C120.149 2.36269 128.159 6.09003 128.159 10.6622V51.6132C128.159 56.1854 120.149 59.9127 110.323 59.9127H22.321C12.4954 59.9127 4.48557 56.1854 4.48557 51.6132V10.6622C4.48557 6.09003 12.4954 2.36269 22.321 2.36269H110.323ZM110.323 0.275391H22.321C10.0391 0.275391 0 4.92213 0 10.6622V51.6132C0 57.3284 9.98567 62 22.321 62H110.323C122.605 62 132.644 57.3533 132.644 51.6132V10.6622C132.644 4.94698 122.659 0.275391 110.323 0.275391Z" fill="#554A44"/>
<path d="M23.9435 15.3989H27.3713V16.4146H26.4826L24.0578 19.7502V22.2544H25.0734V23.27H21.0109V22.2544H22.0265V19.7122L19.6271 16.4146H18.8654V15.3989H22.9279V16.4146H22.1376L23.6801 18.5378L25.2258 16.4146H23.9435V15.3989ZM28.2123 17.5413C28.5847 17.3953 28.9793 17.3223 29.3962 17.3223C29.813 17.3223 30.2065 17.3953 30.5768 17.5413C30.9492 17.6873 31.273 17.8914 31.548 18.1538C31.8231 18.4141 32.04 18.7357 32.1987 19.1187C32.3595 19.5016 32.4399 19.9185 32.4399 20.3691C32.4399 20.8198 32.3595 21.2367 32.1987 21.6196C32.04 22.0026 31.8231 22.3253 31.548 22.5876C31.273 22.8479 30.9492 23.051 30.5768 23.197C30.2065 23.343 29.813 23.416 29.3962 23.416C28.9793 23.416 28.5847 23.343 28.2123 23.197C27.842 23.051 27.5194 22.8479 27.2443 22.5876C26.9714 22.3253 26.7545 22.0026 26.5937 21.6196C26.435 21.2367 26.3556 20.8198 26.3556 20.3691C26.3556 19.9185 26.435 19.5016 26.5937 19.1187C26.7545 18.7357 26.9714 18.4141 27.2443 18.1538C27.5194 17.8914 27.842 17.6873 28.2123 17.5413ZM29.3962 18.3379C29.2481 18.3379 29.1158 18.359 28.9994 18.4014C28.8831 18.4437 28.7762 18.5135 28.6789 18.6108C28.5815 18.7082 28.5011 18.8341 28.4377 18.9885C28.3763 19.143 28.3276 19.3355 28.2917 19.5662C28.2578 19.7968 28.2409 20.0645 28.2409 20.3691C28.2409 20.6738 28.2578 20.9415 28.2917 21.1721C28.3276 21.4028 28.3763 21.5953 28.4377 21.7498C28.5011 21.9042 28.5815 22.0301 28.6789 22.1274C28.7762 22.2248 28.8831 22.2946 28.9994 22.3369C29.1158 22.3792 29.2481 22.4004 29.3962 22.4004C29.5824 22.4004 29.7442 22.3655 29.8818 22.2957C30.0193 22.2237 30.1388 22.1095 30.2404 21.9529C30.3441 21.7963 30.4213 21.5858 30.4721 21.3213C30.525 21.0568 30.5514 20.7394 30.5514 20.3691C30.5514 19.9989 30.525 19.6815 30.4721 19.417C30.4213 19.1525 30.3441 18.942 30.2404 18.7854C30.1388 18.6288 30.0193 18.5156 29.8818 18.4458C29.7442 18.3739 29.5824 18.3379 29.3962 18.3379ZM33.008 17.4302H35.4201V20.9849C35.4201 21.3192 35.4497 21.5794 35.509 21.7656C35.5703 21.9518 35.6571 22.0798 35.7692 22.1497C35.8835 22.2195 36.0379 22.2544 36.2326 22.2544C36.4103 22.2544 36.5923 22.1793 36.7785 22.0291C36.9668 21.8788 37.1445 21.6694 37.3117 21.4006L37.3244 18.4458H36.6896V17.4302H39.1017V22.2544H39.7365V23.27H37.7655L37.3212 22.4067C36.9636 23.0669 36.3722 23.397 35.547 23.397C35.2508 23.397 34.9916 23.3568 34.7695 23.2764C34.5473 23.196 34.3653 23.0859 34.2236 22.9463C34.0818 22.8045 33.9665 22.6257 33.8776 22.4099C33.7909 22.192 33.7295 21.9592 33.6935 21.7117C33.6597 21.462 33.6427 21.1774 33.6427 20.8579V18.4458H33.008V17.4302ZM47.8996 18.5442C47.6584 18.394 47.3516 18.3188 46.9792 18.3188C46.8289 18.3188 46.6893 18.34 46.5602 18.3823C46.4312 18.4225 46.3074 18.4924 46.1889 18.5918C46.0725 18.6912 45.9731 18.8171 45.8905 18.9695C45.808 19.1218 45.7424 19.3154 45.6938 19.5503C45.6451 19.7852 45.6208 20.0518 45.6208 20.3501C45.6208 20.6484 45.6472 20.914 45.7001 21.1467C45.753 21.3795 45.8228 21.5699 45.9096 21.718C45.9985 21.8661 46.1043 21.9878 46.227 22.083C46.3518 22.1782 46.4798 22.2459 46.611 22.2861C46.7422 22.3242 46.884 22.3433 47.0363 22.3433C47.4828 22.3433 47.8308 22.2576 48.0805 22.0862C48.3323 21.9127 48.5333 21.6461 48.6835 21.2864L49.5278 21.5784C49.4516 21.7836 49.3543 21.9772 49.2358 22.1592C49.1194 22.339 48.9787 22.5051 48.8136 22.6575C48.6486 22.8098 48.4645 22.941 48.2614 23.051C48.0604 23.1589 47.8329 23.2436 47.579 23.3049C47.3251 23.3663 47.0575 23.397 46.776 23.397C46.3592 23.397 45.9646 23.324 45.5922 23.178C45.2219 23.032 44.8993 22.8289 44.6242 22.5686C44.3512 22.3062 44.1344 21.9836 43.9736 21.6006C43.8149 21.2176 43.7355 20.8008 43.7355 20.3501C43.7355 19.9883 43.7863 19.6476 43.8879 19.3281C43.9894 19.0086 44.1322 18.7262 44.3163 18.4807C44.5025 18.2353 44.7205 18.0237 44.9701 17.8459C45.2198 17.6682 45.497 17.5339 45.8017 17.4429C46.1064 17.3498 46.4259 17.3032 46.7602 17.3032C47.0247 17.3032 47.2733 17.3286 47.506 17.3794C47.7388 17.4281 47.9461 17.4958 48.1281 17.5825C48.3122 17.6672 48.4836 17.7729 48.6423 17.8999C48.8009 18.0269 48.9395 18.1623 49.058 18.3062C49.1786 18.4479 49.2908 18.6077 49.3945 18.7854C49.5024 18.9526 49.5563 19.1356 49.5563 19.3345C49.5563 19.6159 49.4569 19.856 49.258 20.0549C49.0612 20.2517 48.8221 20.3501 48.5407 20.3501C48.2593 20.3501 48.0191 20.2517 47.8202 20.0549C47.6235 19.856 47.5251 19.6159 47.5251 19.3345C47.5251 19.1779 47.5579 19.0308 47.6235 18.8933C47.6912 18.7558 47.7832 18.6394 47.8996 18.5442ZM55.5929 19.4456V22.2544H56.2277V23.27H54.2504L53.9679 22.6099C53.7521 22.9188 53.5014 23.1304 53.2157 23.2446C52.9322 23.3589 52.5355 23.416 52.0256 23.416C51.7611 23.416 51.5146 23.3695 51.2861 23.2764C51.0597 23.1854 50.8661 23.0605 50.7052 22.9019C50.5466 22.7432 50.4217 22.5527 50.3307 22.3306C50.2419 22.1084 50.1974 21.8704 50.1974 21.6165C50.1974 21.1785 50.3688 20.8156 50.7116 20.5278C51.0544 20.238 51.4924 20.093 52.0256 20.093C52.4551 20.093 52.8106 20.1343 53.092 20.2168C53.3734 20.2972 53.6146 20.4263 53.8156 20.604V19.2583C53.8156 19.0679 53.7891 18.9092 53.7363 18.7822C53.6855 18.6532 53.6082 18.5548 53.5046 18.4871C53.4009 18.4172 53.2845 18.3686 53.1554 18.3411C53.0264 18.3136 52.8719 18.2998 52.6921 18.2998C52.5482 18.2998 52.4181 18.3305 52.3017 18.3918C52.3673 18.5294 52.4001 18.6743 52.4001 18.8267C52.4001 19.1081 52.3006 19.3482 52.1017 19.5471C51.905 19.7439 51.6659 19.8423 51.3844 19.8423C51.103 19.8423 50.8629 19.7439 50.664 19.5471C50.4672 19.3482 50.3688 19.1081 50.3688 18.8267C50.3688 18.6828 50.3963 18.5474 50.4513 18.4204C50.5085 18.2935 50.5868 18.1824 50.6862 18.0872C50.7708 17.9983 50.8586 17.9189 50.9496 17.8491C51.0406 17.7772 51.1549 17.7063 51.2924 17.6365C51.4321 17.5645 51.5833 17.5053 51.7463 17.4587C51.9092 17.4122 52.1038 17.3752 52.3302 17.3477C52.5588 17.318 52.8084 17.3032 53.0793 17.3032C53.4305 17.3032 53.7606 17.3551 54.0695 17.4587C54.3784 17.5624 54.645 17.7063 54.8693 17.8904C55.0936 18.0745 55.2703 18.3009 55.3993 18.5696C55.5284 18.8383 55.5929 19.1303 55.5929 19.4456ZM53.8156 21.8608V21.4229C53.6844 21.298 53.5363 21.1933 53.3713 21.1086C53.2083 21.0219 53.0571 20.9785 52.9174 20.9785C52.6169 20.9785 52.4054 21.0293 52.2826 21.1309C52.1599 21.2303 52.0986 21.3922 52.0986 21.6165C52.0986 21.8852 52.1515 22.083 52.2572 22.21C52.363 22.3369 52.5598 22.4004 52.8476 22.4004C53.0105 22.4004 53.1798 22.3486 53.3554 22.2449C53.5331 22.1391 53.6865 22.0111 53.8156 21.8608ZM60.9884 17.3032C61.2847 17.3032 61.5439 17.3434 61.766 17.4238C61.9882 17.5042 62.1702 17.6153 62.3119 17.7571C62.4537 17.8967 62.568 18.0755 62.6547 18.2935C62.7436 18.5093 62.8049 18.742 62.8388 18.9917C62.8748 19.2393 62.8927 19.5228 62.8927 19.8423V22.2544H63.5275V23.27H60.4806V22.2544H61.1154V19.7153C61.1154 19.381 61.0847 19.1208 61.0234 18.9346C60.9641 18.7484 60.8774 18.6204 60.7631 18.5505C60.651 18.4807 60.4976 18.4458 60.3029 18.4458C60.1252 18.4458 59.9432 18.5209 59.757 18.6711C59.5708 18.8214 59.3941 19.0308 59.227 19.2996L59.2111 22.2544H59.8459V23.27H56.799V22.2544H57.4338V18.4458H56.799V17.4302H58.7699L59.2143 18.2903C59.2926 18.1485 59.3825 18.0216 59.4841 17.9094C59.5877 17.7952 59.7105 17.6915 59.8522 17.5984C59.9961 17.5032 60.1643 17.4302 60.3569 17.3794C60.5494 17.3286 60.7599 17.3032 60.9884 17.3032ZM114.055 21.3022C114.285 21.3022 114.491 21.3721 114.671 21.5117C114.853 21.6514 114.974 21.8323 115.036 22.0544C115.078 22.2089 115.099 22.3718 115.099 22.5432C115.099 22.8035 115.048 23.0669 114.947 23.3335C114.845 23.6022 114.705 23.8551 114.528 24.092C114.35 24.329 114.144 24.5501 113.909 24.7554C113.676 24.9627 113.425 25.1447 113.157 25.3013L112.696 24.8411C113.175 24.4581 113.5 24.1619 113.674 23.9524C113.85 23.7429 113.941 23.5345 113.947 23.3271C113.689 23.2975 113.473 23.1864 113.299 22.9939C113.126 22.8014 113.039 22.576 113.039 22.3179C113.039 22.0365 113.138 21.7974 113.334 21.6006C113.533 21.4017 113.773 21.3022 114.055 21.3022ZM30.1928 27.7542C29.996 27.5553 29.8976 27.3151 29.8976 27.0337C29.8976 26.7523 29.996 26.5132 30.1928 26.3164C30.3917 26.1175 30.6318 26.0181 30.9133 26.0181C31.1947 26.0181 31.4338 26.1175 31.6305 26.3164C31.8294 26.5132 31.9289 26.7523 31.9289 27.0337C31.9289 27.3151 31.8294 27.5553 31.6305 27.7542C31.4338 27.9509 31.1947 28.0493 30.9133 28.0493C30.6318 28.0493 30.3917 27.9509 30.1928 27.7542ZM29.3898 28.4302H31.8019V33.2544H32.4367V34.27H29.3898V33.2544H30.0246V29.4458H29.3898V28.4302ZM32.9445 29.4458V28.4302H33.8332C33.8332 27.6346 34.0596 27.0125 34.5124 26.564C34.9652 26.1154 35.6274 25.8911 36.4992 25.8911C36.825 25.8911 37.1012 25.9197 37.3276 25.9768C37.554 26.0318 37.7264 26.1038 37.8449 26.1926C37.9634 26.2815 38.0618 26.3926 38.1401 26.5259C38.231 26.6782 38.2765 26.8475 38.2765 27.0337C38.2765 27.3151 38.1771 27.5553 37.9782 27.7542C37.7814 27.9509 37.5423 28.0493 37.2609 28.0493C36.9795 28.0493 36.7393 27.9509 36.5405 27.7542C36.3437 27.5553 36.2453 27.3151 36.2453 27.0337C36.2453 26.9914 36.2474 26.9491 36.2516 26.9067C36.2495 26.9067 36.2474 26.9067 36.2453 26.9067C36.0252 26.9067 35.8644 27.0316 35.7629 27.2812C35.6613 27.5309 35.6105 27.9139 35.6105 28.4302H37.5148V29.4458H35.6105V33.2544H37.007V34.27H33.1984V33.2544H33.8332V29.4458H32.9445ZM41.7455 36.2283C41.6334 36.059 41.5773 35.8717 41.5773 35.6665C41.5773 35.3851 41.6757 35.1449 41.8725 34.946C42.0714 34.7493 42.3115 34.6509 42.5929 34.6509C42.8744 34.6509 43.1134 34.7493 43.3102 34.946C43.5091 35.1449 43.6086 35.3851 43.6086 35.6665C43.6086 35.7257 43.6033 35.7829 43.5927 35.8379C43.6012 35.84 43.6086 35.8411 43.6149 35.8411C43.7673 35.8411 43.9535 35.5893 44.1735 35.0857L44.4115 34.5398L42.174 29.4458H41.5773V28.4302H45.132V29.4458H44.0878L45.0939 31.731C45.223 32.0314 45.3161 32.2853 45.3732 32.4927C45.4303 32.2853 45.5234 32.0314 45.6525 31.731L46.6554 29.4458H45.7668V28.4302H48.4328V29.4458H47.7599L45.6398 34.27C45.5298 34.5197 45.4303 34.7345 45.3415 34.9143C45.2547 35.0963 45.1563 35.2804 45.0463 35.4666C44.9384 35.6549 44.8337 35.8136 44.7321 35.9426C44.6305 36.0717 44.5152 36.1944 44.3862 36.3108C44.2592 36.4272 44.127 36.5192 43.9894 36.5869C43.8519 36.6567 43.6995 36.7107 43.5324 36.7488C43.3652 36.789 43.1854 36.8091 42.9928 36.8091C42.813 36.8091 42.6543 36.7943 42.5168 36.7646C42.3792 36.7371 42.2618 36.6948 42.1645 36.6377C42.0693 36.5827 41.9899 36.5224 41.9264 36.4568C41.863 36.3933 41.8027 36.3171 41.7455 36.2283ZM50.6069 28.5413C50.9793 28.3953 51.3739 28.3223 51.7907 28.3223C52.2075 28.3223 52.6011 28.3953 52.9714 28.5413C53.3438 28.6873 53.6675 28.8914 53.9426 29.1538C54.2176 29.4141 54.4345 29.7357 54.5932 30.1187C54.754 30.5016 54.8344 30.9185 54.8344 31.3691C54.8344 31.8198 54.754 32.2367 54.5932 32.6196C54.4345 33.0026 54.2176 33.3253 53.9426 33.5876C53.6675 33.8479 53.3438 34.051 52.9714 34.197C52.6011 34.343 52.2075 34.416 51.7907 34.416C51.3739 34.416 50.9793 34.343 50.6069 34.197C50.2366 34.051 49.9139 33.8479 49.6388 33.5876C49.3659 33.3253 49.149 33.0026 48.9882 32.6196C48.8295 32.2367 48.7502 31.8198 48.7502 31.3691C48.7502 30.9185 48.8295 30.5016 48.9882 30.1187C49.149 29.7357 49.3659 29.4141 49.6388 29.1538C49.9139 28.8914 50.2366 28.6873 50.6069 28.5413ZM51.7907 29.3379C51.6426 29.3379 51.5103 29.359 51.394 29.4014C51.2776 29.4437 51.1707 29.5135 51.0734 29.6108C50.9761 29.7082 50.8957 29.8341 50.8322 29.9885C50.7708 30.143 50.7222 30.3355 50.6862 30.5662C50.6523 30.7968 50.6354 31.0645 50.6354 31.3691C50.6354 31.6738 50.6523 31.9415 50.6862 32.1721C50.7222 32.4028 50.7708 32.5953 50.8322 32.7498C50.8957 32.9042 50.9761 33.0301 51.0734 33.1274C51.1707 33.2248 51.2776 33.2946 51.394 33.3369C51.5103 33.3792 51.6426 33.4004 51.7907 33.4004C51.9769 33.4004 52.1388 33.3655 52.2763 33.2957C52.4138 33.2237 52.5334 33.1095 52.6349 32.9529C52.7386 32.7963 52.8158 32.5858 52.8666 32.3213C52.9195 32.0568 52.946 31.7394 52.946 31.3691C52.946 30.9989 52.9195 30.6815 52.8666 30.417C52.8158 30.1525 52.7386 29.942 52.6349 29.7854C52.5334 29.6288 52.4138 29.5156 52.2763 29.4458C52.1388 29.3739 51.9769 29.3379 51.7907 29.3379ZM55.4025 28.4302H57.8146V31.9849C57.8146 32.3192 57.8442 32.5794 57.9035 32.7656C57.9648 32.9518 58.0516 33.0798 58.1637 33.1497C58.278 33.2195 58.4325 33.2544 58.6271 33.2544C58.8049 33.2544 58.9868 33.1793 59.173 33.0291C59.3613 32.8788 59.5391 32.6694 59.7062 32.4006L59.7189 29.4458H59.0842V28.4302H61.4963V33.2544H62.131V34.27H60.1601L59.7157 33.4067C59.3582 34.0669 58.7668 34.397 57.9416 34.397C57.6454 34.397 57.3862 34.3568 57.164 34.2764C56.9418 34.196 56.7599 34.0859 56.6181 33.9463C56.4763 33.8045 56.361 33.6257 56.2721 33.4099C56.1854 33.192 56.124 32.9592 56.0881 32.7117C56.0542 32.462 56.0373 32.1774 56.0373 31.8579V29.4458H55.4025V28.4302ZM70.2941 29.5442C70.0529 29.394 69.7461 29.3188 69.3737 29.3188C69.2235 29.3188 69.0838 29.34 68.9548 29.3823C68.8257 29.4225 68.7019 29.4924 68.5834 29.5918C68.467 29.6912 68.3676 29.8171 68.2851 29.9695C68.2026 30.1218 68.137 30.3154 68.0883 30.5503C68.0396 30.7852 68.0153 31.0518 68.0153 31.3501C68.0153 31.6484 68.0418 31.914 68.0947 32.1467C68.1475 32.3795 68.2174 32.5699 68.3041 32.718C68.393 32.8661 68.4988 32.9878 68.6215 33.083C68.7463 33.1782 68.8744 33.2459 69.0055 33.2861C69.1367 33.3242 69.2785 33.3433 69.4308 33.3433C69.8773 33.3433 70.2253 33.2576 70.475 33.0862C70.7268 32.9127 70.9278 32.6461 71.078 32.2864L71.9223 32.5784C71.8461 32.7836 71.7488 32.9772 71.6303 33.1592C71.5139 33.339 71.3732 33.5051 71.2082 33.6575C71.0431 33.8098 70.8591 33.941 70.6559 34.051C70.4549 34.1589 70.2275 34.2436 69.9736 34.3049C69.7197 34.3663 69.452 34.397 69.1706 34.397C68.7537 34.397 68.3591 34.324 67.9867 34.178C67.6165 34.032 67.2938 33.8289 67.0187 33.5686C66.7458 33.3062 66.5289 32.9836 66.3681 32.6006C66.2094 32.2176 66.1301 31.8008 66.1301 31.3501C66.1301 30.9883 66.1808 30.6476 66.2824 30.3281C66.384 30.0086 66.5268 29.7262 66.7109 29.4807C66.8971 29.2353 67.115 29.0237 67.3647 28.8459C67.6143 28.6682 67.8915 28.5339 68.1962 28.4429C68.5009 28.3498 68.8204 28.3032 69.1547 28.3032C69.4192 28.3032 69.6678 28.3286 69.9006 28.3794C70.1333 28.4281 70.3407 28.4958 70.5226 28.5825C70.7067 28.6672 70.8781 28.7729 71.0368 28.8999C71.1955 29.0269 71.3341 29.1623 71.4526 29.3062C71.5732 29.4479 71.6853 29.6077 71.789 29.7854C71.8969 29.9526 71.9509 30.1356 71.9509 30.3345C71.9509 30.6159 71.8514 30.856 71.6525 31.0549C71.4557 31.2517 71.2166 31.3501 70.9352 31.3501C70.6538 31.3501 70.4137 31.2517 70.2148 31.0549C70.018 30.856 69.9196 30.6159 69.9196 30.3345C69.9196 30.1779 69.9524 30.0308 70.018 29.8933C70.0857 29.7558 70.1777 29.6394 70.2941 29.5442ZM76.464 28.3032C76.7603 28.3032 77.0195 28.3434 77.2416 28.4238C77.4638 28.5042 77.6458 28.6153 77.7875 28.7571C77.9293 28.8967 78.0435 29.0755 78.1303 29.2935C78.2192 29.5093 78.2805 29.742 78.3144 29.9917C78.3503 30.2393 78.3683 30.5228 78.3683 30.8423V33.2544H79.0031V34.27H75.9562V33.2544H76.591V30.7153C76.591 30.381 76.5603 30.1208 76.4989 29.9346C76.4397 29.7484 76.353 29.6204 76.2387 29.5505C76.1266 29.4807 75.9731 29.4458 75.7785 29.4458C75.5986 29.4458 75.4135 29.523 75.2231 29.6775C75.0348 29.8319 74.856 30.0478 74.6867 30.325V33.2544H75.3215V34.27H72.2746V33.2544H72.9093V27.4146H72.2746V26.3989H74.6867V29.2966C74.7629 29.1549 74.8528 29.0269 74.9565 28.9126C75.0601 28.7983 75.1829 28.6947 75.3246 28.6016C75.4664 28.5063 75.6336 28.4333 75.8261 28.3826C76.0208 28.3297 76.2334 28.3032 76.464 28.3032ZM81.1772 28.5413C81.5496 28.3953 81.9442 28.3223 82.361 28.3223C82.7778 28.3223 83.1714 28.3953 83.5417 28.5413C83.9141 28.6873 84.2378 28.8914 84.5129 29.1538C84.7879 29.4141 85.0048 29.7357 85.1635 30.1187C85.3243 30.5016 85.4047 30.9185 85.4047 31.3691C85.4047 31.8198 85.3243 32.2367 85.1635 32.6196C85.0048 33.0026 84.7879 33.3253 84.5129 33.5876C84.2378 33.8479 83.9141 34.051 83.5417 34.197C83.1714 34.343 82.7778 34.416 82.361 34.416C81.9442 34.416 81.5496 34.343 81.1772 34.197C80.8069 34.051 80.4842 33.8479 80.2092 33.5876C79.9362 33.3253 79.7193 33.0026 79.5585 32.6196C79.3998 32.2367 79.3205 31.8198 79.3205 31.3691C79.3205 30.9185 79.3998 30.5016 79.5585 30.1187C79.7193 29.7357 79.9362 29.4141 80.2092 29.1538C80.4842 28.8914 80.8069 28.6873 81.1772 28.5413ZM82.361 29.3379C82.2129 29.3379 82.0807 29.359 81.9643 29.4014C81.8479 29.4437 81.7411 29.5135 81.6437 29.6108C81.5464 29.7082 81.466 29.8341 81.4025 29.9885C81.3412 30.143 81.2925 30.3355 81.2565 30.5662C81.2227 30.7968 81.2057 31.0645 81.2057 31.3691C81.2057 31.6738 81.2227 31.9415 81.2565 32.1721C81.2925 32.4028 81.3412 32.5953 81.4025 32.7498C81.466 32.9042 81.5464 33.0301 81.6437 33.1274C81.7411 33.2248 81.8479 33.2946 81.9643 33.3369C82.0807 33.3792 82.2129 33.4004 82.361 33.4004C82.5472 33.4004 82.7091 33.3655 82.8466 33.2957C82.9841 33.2237 83.1037 33.1095 83.2052 32.9529C83.3089 32.7963 83.3862 32.5858 83.4369 32.3213C83.4898 32.0568 83.5163 31.7394 83.5163 31.3691C83.5163 30.9989 83.4898 30.6815 83.4369 30.417C83.3862 30.1525 83.3089 29.942 83.2052 29.7854C83.1037 29.6288 82.9841 29.5156 82.8466 29.4458C82.7091 29.3739 82.5472 29.3379 82.361 29.3379ZM87.893 28.5413C88.2654 28.3953 88.66 28.3223 89.0768 28.3223C89.4937 28.3223 89.8872 28.3953 90.2575 28.5413C90.6299 28.6873 90.9536 28.8914 91.2287 29.1538C91.5037 29.4141 91.7206 29.7357 91.8793 30.1187C92.0401 30.5016 92.1205 30.9185 92.1205 31.3691C92.1205 31.8198 92.0401 32.2367 91.8793 32.6196C91.7206 33.0026 91.5037 33.3253 91.2287 33.5876C90.9536 33.8479 90.6299 34.051 90.2575 34.197C89.8872 34.343 89.4937 34.416 89.0768 34.416C88.66 34.416 88.2654 34.343 87.893 34.197C87.5227 34.051 87.2 33.8479 86.925 33.5876C86.652 33.3253 86.4351 33.0026 86.2743 32.6196C86.1156 32.2367 86.0363 31.8198 86.0363 31.3691C86.0363 30.9185 86.1156 30.5016 86.2743 30.1187C86.4351 29.7357 86.652 29.4141 86.925 29.1538C87.2 28.8914 87.5227 28.6873 87.893 28.5413ZM89.0768 29.3379C88.9287 29.3379 88.7965 29.359 88.6801 29.4014C88.5637 29.4437 88.4569 29.5135 88.3595 29.6108C88.2622 29.7082 88.1818 29.8341 88.1183 29.9885C88.057 30.143 88.0083 30.3355 87.9723 30.5662C87.9385 30.7968 87.9216 31.0645 87.9216 31.3691C87.9216 31.6738 87.9385 31.9415 87.9723 32.1721C88.0083 32.4028 88.057 32.5953 88.1183 32.7498C88.1818 32.9042 88.2622 33.0301 88.3595 33.1274C88.4569 33.2248 88.5637 33.2946 88.6801 33.3369C88.7965 33.3792 88.9287 33.4004 89.0768 33.4004C89.263 33.4004 89.4249 33.3655 89.5624 33.2957C89.7 33.2237 89.8195 33.1095 89.9211 32.9529C90.0247 32.7963 90.102 32.5858 90.1528 32.3213C90.2057 32.0568 90.2321 31.7394 90.2321 31.3691C90.2321 30.9989 90.2057 30.6815 90.1528 30.417C90.102 30.1525 90.0247 29.942 89.9211 29.7854C89.8195 29.6288 89.7 29.5156 89.5624 29.4458C89.4249 29.3739 89.263 29.3379 89.0768 29.3379ZM94.5549 33.2576C94.6755 33.3401 94.8574 33.3813 95.1008 33.3813C95.3187 33.3813 95.4954 33.3687 95.6308 33.3433C95.7683 33.3179 95.872 33.2766 95.9418 33.2195C96.0116 33.1602 96.0582 33.0957 96.0815 33.0259C96.1047 32.9539 96.1164 32.8608 96.1164 32.7466C96.1164 32.6112 96.0804 32.4948 96.0085 32.3975C95.9365 32.3001 95.8392 32.2218 95.7165 32.1626C95.5938 32.1034 95.453 32.0515 95.2944 32.0071C95.1357 31.9605 94.9685 31.9172 94.7929 31.877C94.6173 31.8346 94.4417 31.7891 94.266 31.7405C94.0904 31.6897 93.9233 31.6241 93.7646 31.5437C93.6059 31.4612 93.4652 31.3649 93.3425 31.2549C93.2197 31.1427 93.1224 30.9978 93.0505 30.8201C92.9785 30.6423 92.9426 30.4382 92.9426 30.2075C92.9426 29.9959 92.9679 29.8034 93.0187 29.6299C93.0695 29.4564 93.1372 29.3093 93.2218 29.1887C93.3065 29.066 93.4133 28.9591 93.5424 28.8682C93.6715 28.7772 93.8058 28.7042 93.9455 28.6492C94.0872 28.5942 94.2459 28.5497 94.4216 28.5159C94.5993 28.482 94.7707 28.4598 94.9357 28.4492C95.1008 28.4365 95.2806 28.4302 95.4753 28.4302C95.8984 28.4302 96.2677 28.4841 96.5829 28.592C96.9003 28.7 97.15 28.8449 97.332 29.0269C97.4293 29.1094 97.5044 29.2099 97.5573 29.3284C97.6123 29.4447 97.6398 29.5685 97.6398 29.6997C97.6398 29.9451 97.5531 30.1546 97.3796 30.3281C97.2061 30.5016 96.9966 30.5884 96.7511 30.5884C96.5057 30.5884 96.2962 30.5016 96.1227 30.3281C95.9492 30.1546 95.8625 29.9451 95.8625 29.6997C95.8625 29.6108 95.8752 29.5251 95.9006 29.4426C95.78 29.3601 95.598 29.3188 95.3547 29.3188C95.0563 29.3188 94.8331 29.3548 94.685 29.4268C94.539 29.4987 94.466 29.632 94.466 29.8267C94.466 29.9494 94.4967 30.0583 94.558 30.1536C94.6194 30.2467 94.703 30.3239 94.8088 30.3853C94.9146 30.4445 95.0373 30.5016 95.1769 30.5566C95.3187 30.6095 95.4689 30.655 95.6276 30.6931C95.7863 30.7291 95.9492 30.7735 96.1164 30.8264C96.2835 30.8793 96.4465 30.9333 96.6051 30.9883C96.7638 31.0433 96.913 31.1163 97.0527 31.2073C97.1944 31.2961 97.3182 31.3966 97.424 31.5088C97.5298 31.6209 97.6134 31.7616 97.6747 31.9309C97.7361 32.0981 97.7668 32.2853 97.7668 32.4927C97.7668 32.7889 97.717 33.0502 97.6176 33.2766C97.5203 33.5009 97.3891 33.6829 97.224 33.8225C97.0611 33.9622 96.858 34.0764 96.6147 34.1653C96.3713 34.252 96.1185 34.3123 95.8561 34.3462C95.5938 34.38 95.3018 34.397 94.9801 34.397C94.3306 34.397 93.8069 34.2732 93.4091 34.0256C93.0134 33.7781 92.8156 33.4364 92.8156 33.0005C92.8156 32.755 92.9023 32.5456 93.0759 32.3721C93.2494 32.1986 93.4588 32.1118 93.7043 32.1118C93.9497 32.1118 94.1592 32.1986 94.3327 32.3721C94.5062 32.5456 94.5929 32.755 94.5929 33.0005C94.5929 33.0894 94.5802 33.175 94.5549 33.2576ZM100.363 31.731C100.382 31.9764 100.422 32.1954 100.484 32.3879C100.545 32.5805 100.619 32.7381 100.706 32.8608C100.795 32.9836 100.897 33.0851 101.014 33.1655C101.13 33.2438 101.25 33.2999 101.372 33.3337C101.495 33.3655 101.626 33.3813 101.766 33.3813C102.212 33.3813 102.56 33.2957 102.81 33.1243C103.062 32.9508 103.263 32.6842 103.413 32.3245L104.257 32.6165C104.181 32.8217 104.084 33.0153 103.965 33.1973C103.849 33.3771 103.708 33.5432 103.543 33.6956C103.378 33.8479 103.194 33.9791 102.991 34.0891C102.79 34.197 102.562 34.2817 102.309 34.343C102.055 34.4044 101.787 34.4351 101.506 34.4351C101.089 34.4351 100.694 34.3621 100.322 34.2161C99.9514 34.0701 99.6287 33.8669 99.3537 33.6067C99.0807 33.3443 98.8639 33.0216 98.703 32.6387C98.5444 32.2557 98.465 31.8389 98.465 31.3882C98.465 30.9375 98.5444 30.5186 98.703 30.1313C98.8639 29.7441 99.0807 29.4183 99.3537 29.1538C99.6287 28.8872 99.9514 28.6788 100.322 28.5286C100.694 28.3783 101.089 28.3032 101.506 28.3032C101.922 28.3032 102.316 28.3783 102.686 28.5286C103.059 28.6788 103.381 28.8872 103.654 29.1538C103.929 29.4183 104.146 29.7441 104.305 30.1313C104.466 30.5186 104.546 30.9375 104.546 31.3882L104.467 31.731H100.363ZM100.385 30.7153H102.626C102.571 30.2287 102.449 29.8743 102.261 29.6521C102.073 29.4299 101.823 29.3188 101.512 29.3188C101.357 29.3188 101.219 29.3442 101.096 29.395C100.973 29.4437 100.863 29.523 100.766 29.6331C100.669 29.741 100.587 29.8859 100.522 30.0679C100.458 30.2477 100.413 30.4635 100.385 30.7153ZM12.778 38.1606H13.4128V39.4302H15.1901V40.4458H13.4128V43.7466C13.4128 43.8905 13.453 44.0111 13.5334 44.1084C13.6159 44.2057 13.745 44.2544 13.9206 44.2544C14.1174 44.2544 14.2845 44.1899 14.422 44.0608C14.5596 43.9296 14.6463 43.7402 14.6823 43.4927L15.444 43.6196C15.4123 43.8672 15.3509 44.0968 15.2599 44.3083C15.1711 44.5178 15.0547 44.7051 14.9108 44.8701C14.7669 45.033 14.5881 45.1621 14.3744 45.2573C14.1628 45.3504 13.9269 45.397 13.6667 45.397C13.034 45.397 12.5368 45.2499 12.175 44.9558C11.8153 44.6596 11.6354 44.2565 11.6354 43.7466V40.4458H11.0007V39.4302H11.1276C11.4535 39.4302 11.7412 39.3371 11.9909 39.1509C12.2406 38.9647 12.5029 38.6346 12.778 38.1606ZM20.1413 39.3032C20.4375 39.3032 20.6967 39.3434 20.9189 39.4238C21.141 39.5042 21.323 39.6153 21.4648 39.7571C21.6065 39.8967 21.7208 40.0755 21.8075 40.2935C21.8964 40.5093 21.9578 40.742 21.9916 40.9917C22.0276 41.2393 22.0456 41.5228 22.0456 41.8423V44.2544H22.6803V45.27H19.6335V44.2544H20.2682V41.7153C20.2682 41.381 20.2376 41.1208 20.1762 40.9346C20.1169 40.7484 20.0302 40.6204 19.9159 40.5505C19.8038 40.4807 19.6504 40.4458 19.4557 40.4458C19.2759 40.4458 19.0907 40.523 18.9003 40.6775C18.712 40.8319 18.5332 41.0478 18.3639 41.325V44.2544H18.9987V45.27H15.9518V44.2544H16.5866V38.4146H15.9518V37.3989H18.3639V40.2966C18.4401 40.1549 18.53 40.0269 18.6337 39.9126C18.7374 39.7983 18.8601 39.6947 19.0019 39.6016C19.1436 39.5063 19.3108 39.4333 19.5033 39.3826C19.698 39.3297 19.9106 39.3032 20.1413 39.3032ZM24.8957 42.731C24.9147 42.9764 24.9549 43.1954 25.0163 43.3879C25.0776 43.5805 25.1517 43.7381 25.2384 43.8608C25.3273 43.9836 25.4299 44.0851 25.5463 44.1655C25.6627 44.2438 25.7822 44.2999 25.905 44.3337C26.0277 44.3655 26.1589 44.3813 26.2985 44.3813C26.745 44.3813 27.093 44.2957 27.3427 44.1243C27.5945 43.9508 27.7955 43.6842 27.9457 43.3245L28.79 43.6165C28.7138 43.8217 28.6165 44.0153 28.498 44.1973C28.3816 44.3771 28.2409 44.5432 28.0759 44.6956C27.9108 44.8479 27.7267 44.9791 27.5236 45.0891C27.3226 45.197 27.0951 45.2817 26.8412 45.343C26.5873 45.4044 26.3197 45.4351 26.0383 45.4351C25.6214 45.4351 25.2268 45.3621 24.8544 45.2161C24.4841 45.0701 24.1615 44.8669 23.8864 44.6067C23.6134 44.3443 23.3966 44.0216 23.2358 43.6387C23.0771 43.2557 22.9977 42.8389 22.9977 42.3882C22.9977 41.9375 23.0771 41.5186 23.2358 41.1313C23.3966 40.7441 23.6134 40.4183 23.8864 40.1538C24.1615 39.8872 24.4841 39.6788 24.8544 39.5286C25.2268 39.3783 25.6214 39.3032 26.0383 39.3032C26.4551 39.3032 26.8486 39.3783 27.2189 39.5286C27.5913 39.6788 27.914 39.8872 28.1869 40.1538C28.462 40.4183 28.6789 40.7441 28.8376 41.1313C28.9984 41.5186 29.0788 41.9375 29.0788 42.3882L28.9994 42.731H24.8957ZM24.9179 41.7153H27.1586C27.1036 41.2287 26.9819 40.8743 26.7936 40.6521C26.6053 40.4299 26.3556 40.3188 26.0446 40.3188C25.8901 40.3188 25.7516 40.3442 25.6288 40.395C25.5061 40.4437 25.3961 40.523 25.2988 40.6331C25.2014 40.741 25.12 40.8859 25.0544 41.0679C24.9909 41.2477 24.9454 41.4635 24.9179 41.7153ZM37.2419 40.5442C37.0007 40.394 36.6939 40.3188 36.3215 40.3188C36.1712 40.3188 36.0316 40.34 35.9025 40.3823C35.7734 40.4225 35.6497 40.4924 35.5312 40.5918C35.4148 40.6912 35.3154 40.8171 35.2328 40.9695C35.1503 41.1218 35.0847 41.3154 35.0361 41.5503C34.9874 41.7852 34.9631 42.0518 34.9631 42.3501C34.9631 42.6484 34.9895 42.914 35.0424 43.1467C35.0953 43.3795 35.1651 43.5699 35.2519 43.718C35.3407 43.8661 35.4465 43.9878 35.5693 44.083C35.6941 44.1782 35.8221 44.2459 35.9533 44.2861C36.0845 44.3242 36.2262 44.3433 36.3786 44.3433C36.825 44.3433 37.1731 44.2576 37.4228 44.0862C37.6746 43.9127 37.8756 43.6461 38.0258 43.2864L38.87 43.5784C38.7939 43.7836 38.6965 43.9772 38.578 44.1592C38.4617 44.339 38.321 44.5051 38.1559 44.6575C37.9909 44.8098 37.8068 44.941 37.6037 45.051C37.4027 45.1589 37.1752 45.2436 36.9213 45.3049C36.6674 45.3663 36.3997 45.397 36.1183 45.397C35.7015 45.397 35.3069 45.324 34.9345 45.178C34.5642 45.032 34.2415 44.8289 33.9665 44.5686C33.6935 44.3062 33.4766 43.9836 33.3158 43.6006C33.1572 43.2176 33.0778 42.8008 33.0778 42.3501C33.0778 41.9883 33.1286 41.6476 33.2301 41.3281C33.3317 41.0086 33.4745 40.7262 33.6586 40.4807C33.8448 40.2353 34.0627 40.0237 34.3124 39.8459C34.5621 39.6682 34.8393 39.5339 35.144 39.4429C35.4487 39.3498 35.7682 39.3032 36.1025 39.3032C36.3669 39.3032 36.6156 39.3286 36.8483 39.3794C37.0811 39.4281 37.2884 39.4958 37.4704 39.5825C37.6545 39.6672 37.8259 39.7729 37.9845 39.8999C38.1432 40.0269 38.2818 40.1623 38.4003 40.3062C38.5209 40.4479 38.6331 40.6077 38.7367 40.7854C38.8447 40.9526 38.8986 41.1356 38.8986 41.3345C38.8986 41.6159 38.7992 41.856 38.6003 42.0549C38.4035 42.2517 38.1644 42.3501 37.883 42.3501C37.6016 42.3501 37.3614 42.2517 37.1625 42.0549C36.9657 41.856 36.8674 41.6159 36.8674 41.3345C36.8674 41.1779 36.9002 41.0308 36.9657 40.8933C37.0335 40.7558 37.1255 40.6394 37.2419 40.5442ZM41.3964 39.5413C41.7688 39.3953 42.1634 39.3223 42.5802 39.3223C42.9971 39.3223 43.3906 39.3953 43.7609 39.5413C44.1333 39.6873 44.457 39.8914 44.7321 40.1538C45.0072 40.4141 45.224 40.7357 45.3827 41.1187C45.5435 41.5016 45.6239 41.9185 45.6239 42.3691C45.6239 42.8198 45.5435 43.2367 45.3827 43.6196C45.224 44.0026 45.0072 44.3253 44.7321 44.5876C44.457 44.8479 44.1333 45.051 43.7609 45.197C43.3906 45.343 42.9971 45.416 42.5802 45.416C42.1634 45.416 41.7688 45.343 41.3964 45.197C41.0261 45.051 40.7035 44.8479 40.4284 44.5876C40.1554 44.3253 39.9386 44.0026 39.7778 43.6196C39.6191 43.2367 39.5397 42.8198 39.5397 42.3691C39.5397 41.9185 39.6191 41.5016 39.7778 41.1187C39.9386 40.7357 40.1554 40.4141 40.4284 40.1538C40.7035 39.8914 41.0261 39.6873 41.3964 39.5413ZM42.5802 40.3379C42.4321 40.3379 42.2999 40.359 42.1835 40.4014C42.0671 40.4437 41.9603 40.5135 41.863 40.6108C41.7656 40.7082 41.6852 40.8341 41.6217 40.9885C41.5604 41.143 41.5117 41.3355 41.4758 41.5662C41.4419 41.7968 41.425 42.0645 41.425 42.3691C41.425 42.6738 41.4419 42.9415 41.4758 43.1721C41.5117 43.4028 41.5604 43.5953 41.6217 43.7498C41.6852 43.9042 41.7656 44.0301 41.863 44.1274C41.9603 44.2248 42.0671 44.2946 42.1835 44.3369C42.2999 44.3792 42.4321 44.4004 42.5802 44.4004C42.7664 44.4004 42.9283 44.3655 43.0658 44.2957C43.2034 44.2237 43.3229 44.1095 43.4245 43.9529C43.5282 43.7963 43.6054 43.5858 43.6562 43.3213C43.7091 43.0568 43.7355 42.7394 43.7355 42.3691C43.7355 41.9989 43.7091 41.6815 43.6562 41.417C43.6054 41.1525 43.5282 40.942 43.4245 40.7854C43.3229 40.6288 43.2034 40.5156 43.0658 40.4458C42.9283 40.3739 42.7664 40.3379 42.5802 40.3379ZM46.1921 39.4302H48.163L48.5629 40.2014C48.9374 39.6026 49.4675 39.3032 50.153 39.3032C50.6121 39.3032 50.9761 39.445 51.2448 39.7285C51.5156 40.0099 51.651 40.376 51.651 40.8267C51.651 41.1081 51.5516 41.3482 51.3527 41.5471C51.1559 41.7439 50.9168 41.8423 50.6354 41.8423C50.354 41.8423 50.1139 41.7439 49.915 41.5471C49.7182 41.3482 49.6198 41.1081 49.6198 40.8267C49.6198 40.7124 49.6378 40.6024 49.6738 40.4966C49.6166 40.4627 49.5563 40.4458 49.4928 40.4458C49.3511 40.4458 49.204 40.5389 49.0517 40.7251C48.9015 40.9092 48.7565 41.1853 48.6169 41.5535L48.6042 44.2544H50.0007V45.27H46.1921V44.2544H46.8268V40.4458H46.1921V39.4302ZM52.1589 39.4302H54.1298L54.5297 40.2014C54.9042 39.6026 55.4342 39.3032 56.1198 39.3032C56.5789 39.3032 56.9429 39.445 57.2116 39.7285C57.4824 40.0099 57.6178 40.376 57.6178 40.8267C57.6178 41.1081 57.5184 41.3482 57.3195 41.5471C57.1227 41.7439 56.8836 41.8423 56.6022 41.8423C56.3208 41.8423 56.0807 41.7439 55.8818 41.5471C55.685 41.3482 55.5866 41.1081 55.5866 40.8267C55.5866 40.7124 55.6046 40.6024 55.6405 40.4966C55.5834 40.4627 55.5231 40.4458 55.4596 40.4458C55.3179 40.4458 55.1708 40.5389 55.0185 40.7251C54.8683 40.9092 54.7233 41.1853 54.5837 41.5535L54.571 44.2544H55.9675V45.27H52.1589V44.2544H52.7936V40.4458H52.1589V39.4302ZM59.8332 42.731C59.8522 42.9764 59.8924 43.1954 59.9538 43.3879C60.0151 43.5805 60.0892 43.7381 60.1759 43.8608C60.2648 43.9836 60.3674 44.0851 60.4838 44.1655C60.6002 44.2438 60.7197 44.2999 60.8425 44.3337C60.9652 44.3655 61.0964 44.3813 61.236 44.3813C61.6825 44.3813 62.0305 44.2957 62.2802 44.1243C62.532 43.9508 62.733 43.6842 62.8832 43.3245L63.7275 43.6165C63.6513 43.8217 63.554 44.0153 63.4355 44.1973C63.3191 44.3771 63.1784 44.5432 63.0134 44.6956C62.8483 44.8479 62.6642 44.9791 62.4611 45.0891C62.2601 45.197 62.0326 45.2817 61.7787 45.343C61.5248 45.4044 61.2572 45.4351 60.9758 45.4351C60.5589 45.4351 60.1643 45.3621 59.7919 45.2161C59.4216 45.0701 59.099 44.8669 58.8239 44.6067C58.5509 44.3443 58.3341 44.0216 58.1733 43.6387C58.0146 43.2557 57.9352 42.8389 57.9352 42.3882C57.9352 41.9375 58.0146 41.5186 58.1733 41.1313C58.3341 40.7441 58.5509 40.4183 58.8239 40.1538C59.099 39.8872 59.4216 39.6788 59.7919 39.5286C60.1643 39.3783 60.5589 39.3032 60.9758 39.3032C61.3926 39.3032 61.7861 39.3783 62.1564 39.5286C62.5288 39.6788 62.8515 39.8872 63.1244 40.1538C63.3995 40.4183 63.6164 40.7441 63.7751 41.1313C63.9359 41.5186 64.0163 41.9375 64.0163 42.3882L63.9369 42.731H59.8332ZM59.8554 41.7153H62.0961C62.0411 41.2287 61.9194 40.8743 61.7311 40.6521C61.5428 40.4299 61.2931 40.3188 60.9821 40.3188C60.8276 40.3188 60.6891 40.3442 60.5663 40.395C60.4436 40.4437 60.3336 40.523 60.2363 40.6331C60.1389 40.741 60.0575 40.8859 59.9919 41.0679C59.9284 41.2477 59.8829 41.4635 59.8554 41.7153ZM68.7516 40.5442C68.5104 40.394 68.2036 40.3188 67.8312 40.3188C67.681 40.3188 67.5413 40.34 67.4123 40.3823C67.2832 40.4225 67.1594 40.4924 67.0409 40.5918C66.9246 40.6912 66.8251 40.8171 66.7426 40.9695C66.6601 41.1218 66.5945 41.3154 66.5458 41.5503C66.4972 41.7852 66.4728 42.0518 66.4728 42.3501C66.4728 42.6484 66.4993 42.914 66.5522 43.1467C66.6051 43.3795 66.6749 43.5699 66.7616 43.718C66.8505 43.8661 66.9563 43.9878 67.079 44.083C67.2039 44.1782 67.3319 44.2459 67.4631 44.2861C67.5942 44.3242 67.736 44.3433 67.8884 44.3433C68.3348 44.3433 68.6829 44.2576 68.9325 44.0862C69.1843 43.9127 69.3853 43.6461 69.5356 43.2864L70.3798 43.5784C70.3036 43.7836 70.2063 43.9772 70.0878 44.1592C69.9714 44.339 69.8307 44.5051 69.6657 44.6575C69.5007 44.8098 69.3166 44.941 69.1134 45.051C68.9124 45.1589 68.685 45.2436 68.4311 45.3049C68.1772 45.3663 67.9095 45.397 67.6281 45.397C67.2113 45.397 66.8167 45.324 66.4443 45.178C66.074 45.032 65.7513 44.8289 65.4762 44.5686C65.2033 44.3062 64.9864 43.9836 64.8256 43.6006C64.6669 43.2176 64.5876 42.8008 64.5876 42.3501C64.5876 41.9883 64.6384 41.6476 64.7399 41.3281C64.8415 41.0086 64.9843 40.7262 65.1684 40.4807C65.3546 40.2353 65.5725 40.0237 65.8222 39.8459C66.0719 39.6682 66.349 39.5339 66.6537 39.4429C66.9584 39.3498 67.2779 39.3032 67.6122 39.3032C67.8767 39.3032 68.1253 39.3286 68.3581 39.3794C68.5908 39.4281 68.7982 39.4958 68.9801 39.5825C69.1642 39.6672 69.3356 39.7729 69.4943 39.8999C69.653 40.0269 69.7916 40.1623 69.9101 40.3062C70.0307 40.4479 70.1428 40.6077 70.2465 40.7854C70.3544 40.9526 70.4084 41.1356 70.4084 41.3345C70.4084 41.6159 70.3089 41.856 70.11 42.0549C69.9133 42.2517 69.6742 42.3501 69.3927 42.3501C69.1113 42.3501 68.8712 42.2517 68.6723 42.0549C68.4755 41.856 68.3771 41.6159 68.3771 41.3345C68.3771 41.1779 68.4099 41.0308 68.4755 40.8933C68.5432 40.7558 68.6353 40.6394 68.7516 40.5442ZM72.7634 38.1606H73.3981V39.4302H75.1755V40.4458H73.3981V43.7466C73.3981 43.8905 73.4383 44.0111 73.5187 44.1084C73.6012 44.2057 73.7303 44.2544 73.9059 44.2544C74.1027 44.2544 74.2699 44.1899 74.4074 44.0608C74.5449 43.9296 74.6317 43.7402 74.6676 43.4927L75.4294 43.6196C75.3976 43.8672 75.3363 44.0968 75.2453 44.3083C75.1564 44.5178 75.04 44.7051 74.8962 44.8701C74.7523 45.033 74.5735 45.1621 74.3598 45.2573C74.1482 45.3504 73.9123 45.397 73.652 45.397C73.0194 45.397 72.5221 45.2499 72.1603 44.9558C71.8006 44.6596 71.6208 44.2565 71.6208 43.7466V40.4458H70.986V39.4302H71.113C71.4388 39.4302 71.7266 39.3371 71.9762 39.1509C72.2259 38.9647 72.4883 38.6346 72.7634 38.1606ZM83.5544 39.3032C83.8506 39.3032 84.1098 39.3434 84.332 39.4238C84.5541 39.5042 84.7361 39.6153 84.8779 39.7571C85.0196 39.8967 85.1339 40.0755 85.2206 40.2935C85.3095 40.5093 85.3709 40.742 85.4047 40.9917C85.4407 41.2393 85.4587 41.5228 85.4587 41.8423V44.2544H86.0934V45.27H83.0466V44.2544H83.6813V41.7153C83.6813 41.381 83.6506 41.1208 83.5893 40.9346C83.53 40.7484 83.4433 40.6204 83.329 40.5505C83.2169 40.4807 83.0635 40.4458 82.8688 40.4458C82.6911 40.4458 82.5091 40.5209 82.3229 40.6711C82.1367 40.8214 81.96 41.0308 81.7929 41.2996L81.777 44.2544H82.4118V45.27H79.3649V44.2544H79.9997V40.4458H79.3649V39.4302H81.3359L81.7802 40.2903C81.8585 40.1485 81.9484 40.0216 82.05 39.9094C82.1537 39.7952 82.2764 39.6915 82.4181 39.5984C82.562 39.5032 82.7302 39.4302 82.9228 39.3794C83.1153 39.3286 83.3259 39.3032 83.5544 39.3032ZM86.2204 39.4302H88.6325V42.9849C88.6325 43.3192 88.6621 43.5794 88.7214 43.7656C88.7827 43.9518 88.8695 44.0798 88.9816 44.1497C89.0959 44.2195 89.2503 44.2544 89.445 44.2544C89.6227 44.2544 89.8047 44.1793 89.9909 44.0291C90.1792 43.8788 90.3569 43.6694 90.5241 43.4006L90.5368 40.4458H89.902V39.4302H92.3141V44.2544H92.9489V45.27H90.978L90.5336 44.4067C90.176 45.0669 89.5846 45.397 88.7594 45.397C88.4632 45.397 88.204 45.3568 87.9819 45.2764C87.7597 45.196 87.5777 45.0859 87.436 44.9463C87.2942 44.8045 87.1789 44.6257 87.09 44.4099C87.0033 44.192 86.9419 43.9592 86.9059 43.7117C86.8721 43.462 86.8551 43.1774 86.8551 42.8579V40.4458H86.2204V39.4302ZM101.328 39.3032C101.624 39.3032 101.883 39.3434 102.105 39.4238C102.328 39.5042 102.51 39.6153 102.651 39.7571C102.793 39.8967 102.907 40.0755 102.994 40.2935C103.083 40.5093 103.144 40.742 103.178 40.9917C103.214 41.2393 103.232 41.5228 103.232 41.8423V44.2544H103.867V45.27H100.82V44.2544H101.455V41.7153C101.455 41.381 101.424 41.1208 101.363 40.9346C101.303 40.7484 101.217 40.6204 101.102 40.5505C100.99 40.4807 100.837 40.4458 100.642 40.4458C100.46 40.4458 100.273 40.5251 100.08 40.6838C99.8879 40.8425 99.706 41.0647 99.5346 41.3503C99.5452 41.5027 99.5505 41.6667 99.5505 41.8423V44.2544H100.185V45.27H97.1384V44.2544H97.7731V41.7153C97.7731 41.381 97.7424 41.1208 97.6811 40.9346C97.6218 40.7484 97.5351 40.6204 97.4208 40.5505C97.3087 40.4807 97.1553 40.4458 96.9606 40.4458C96.7829 40.4458 96.6009 40.5209 96.4147 40.6711C96.2285 40.8214 96.0518 41.0308 95.8847 41.2996L95.8688 44.2544H96.5036V45.27H93.4567V44.2544H94.0915V40.4458H93.4567V39.4302H95.4277L95.872 40.2903C95.9503 40.1485 96.0402 40.0216 96.1418 39.9094C96.2454 39.7952 96.3682 39.6915 96.5099 39.5984C96.6538 39.5032 96.822 39.4302 97.0146 39.3794C97.2071 39.3286 97.4176 39.3032 97.6462 39.3032C97.9022 39.3032 98.1307 39.3328 98.3317 39.3921C98.5327 39.4492 98.703 39.5349 98.8427 39.6492C98.9845 39.7613 99.1019 39.8957 99.195 40.0522C99.2881 40.2067 99.3621 40.3866 99.4172 40.5918C99.4701 40.4543 99.5314 40.3252 99.6012 40.2046C99.6732 40.084 99.7642 39.9676 99.8742 39.8555C99.9842 39.7412 100.106 39.6449 100.239 39.5667C100.375 39.4862 100.535 39.4228 100.722 39.3762C100.908 39.3276 101.11 39.3032 101.328 39.3032ZM108.348 39.3032C108.843 39.3032 109.262 39.4291 109.605 39.6809C109.95 39.9306 110.206 40.2818 110.373 40.7346C110.542 41.1853 110.627 41.7249 110.627 42.3533C110.627 42.8124 110.564 43.2335 110.437 43.6165C110.31 43.9973 110.134 44.3179 109.91 44.5781C109.688 44.8363 109.421 45.0373 109.11 45.1812C108.801 45.325 108.465 45.397 108.101 45.397C107.931 45.397 107.769 45.3822 107.612 45.3525C107.455 45.3229 107.319 45.2869 107.203 45.2446C107.086 45.2002 106.972 45.1441 106.86 45.0764C106.75 45.0087 106.658 44.9463 106.584 44.8892C106.512 44.832 106.439 44.7643 106.365 44.686C106.293 44.6077 106.239 44.5464 106.203 44.502C106.169 44.4575 106.131 44.4057 106.089 44.3464L105.47 45.27H104.629V38.4146H103.994V37.3989H106.406V40.3823C106.493 40.2321 106.594 40.0946 106.711 39.9697C106.827 39.8449 106.963 39.7317 107.12 39.6301C107.279 39.5264 107.463 39.446 107.672 39.3889C107.882 39.3318 108.107 39.3032 108.348 39.3032ZM106.406 43.3689C106.518 43.6292 106.664 43.8365 106.844 43.991C107.024 44.1433 107.236 44.2195 107.482 44.2195C107.901 44.2195 108.212 44.0555 108.415 43.7275C108.62 43.3996 108.723 42.9341 108.723 42.3311C108.723 42.0475 108.689 41.7862 108.621 41.5471C108.556 41.3059 108.467 41.106 108.355 40.9473C108.245 40.7886 108.118 40.6659 107.974 40.5791C107.83 40.4902 107.68 40.4458 107.523 40.4458C107.29 40.4458 107.085 40.5177 106.907 40.6616C106.732 40.8034 106.565 41.016 106.406 41.2996V43.3689ZM113.166 42.731C113.185 42.9764 113.225 43.1954 113.287 43.3879C113.348 43.5805 113.422 43.7381 113.509 43.8608C113.598 43.9836 113.7 44.0851 113.817 44.1655C113.933 44.2438 114.053 44.2999 114.175 44.3337C114.298 44.3655 114.429 44.3813 114.569 44.3813C115.015 44.3813 115.364 44.2957 115.613 44.1243C115.865 43.9508 116.066 43.6842 116.216 43.3245L117.06 43.6165C116.984 43.8217 116.887 44.0153 116.768 44.1973C116.652 44.3771 116.511 44.5432 116.346 44.6956C116.181 44.8479 115.997 44.9791 115.794 45.0891C115.593 45.197 115.366 45.2817 115.112 45.343C114.858 45.4044 114.59 45.4351 114.309 45.4351C113.892 45.4351 113.497 45.3621 113.125 45.2161C112.755 45.0701 112.432 44.8669 112.157 44.6067C111.884 44.3443 111.667 44.0216 111.506 43.6387C111.348 43.2557 111.268 42.8389 111.268 42.3882C111.268 41.9375 111.348 41.5186 111.506 41.1313C111.667 40.7441 111.884 40.4183 112.157 40.1538C112.432 39.8872 112.755 39.6788 113.125 39.5286C113.497 39.3783 113.892 39.3032 114.309 39.3032C114.726 39.3032 115.119 39.3783 115.489 39.5286C115.862 39.6788 116.184 39.8872 116.457 40.1538C116.733 40.4183 116.949 40.7441 117.108 41.1313C117.269 41.5186 117.349 41.9375 117.349 42.3882L117.27 42.731H113.166ZM113.188 41.7153H115.429C115.374 41.2287 115.252 40.8743 115.064 40.6521C114.876 40.4299 114.626 40.3188 114.315 40.3188C114.161 40.3188 114.022 40.3442 113.899 40.395C113.777 40.4437 113.667 40.523 113.569 40.6331C113.472 40.741 113.39 40.8859 113.325 41.0679C113.261 41.2477 113.216 41.4635 113.188 41.7153ZM117.857 39.4302H119.828L120.228 40.2014C120.602 39.6026 121.132 39.3032 121.818 39.3032C122.277 39.3032 122.641 39.445 122.91 39.7285C123.181 40.0099 123.316 40.376 123.316 40.8267C123.316 41.1081 123.217 41.3482 123.018 41.5471C122.821 41.7439 122.582 41.8423 122.3 41.8423C122.019 41.8423 121.779 41.7439 121.58 41.5471C121.383 41.3482 121.285 41.1081 121.285 40.8267C121.285 40.7124 121.303 40.6024 121.339 40.4966C121.282 40.4627 121.221 40.4458 121.158 40.4458C121.016 40.4458 120.869 40.5389 120.717 40.7251C120.566 40.9092 120.422 41.1853 120.282 41.5535L120.269 44.2544H121.666V45.27H117.857V44.2544H118.492V40.4458H117.857V39.4302Z" fill="#ADADAD"/>
<path d="M67.4631 17.4302H71.0177V18.4458H70.0212L70.8749 20.731C70.9447 20.9172 71.0241 21.1816 71.113 21.5244C71.1997 21.1816 71.2759 20.9172 71.3415 20.731L72.1603 18.4458H71.6525V17.4302H73.9377V18.4458H73.3156L74.1725 20.731C74.2424 20.9172 74.3217 21.1816 74.4106 21.5244C74.5016 21.1626 74.5767 20.8981 74.6359 20.731L75.4548 18.4458H74.5724V17.4302H77.2384V18.4458H76.5656L74.8263 23.27H73.4299L72.7443 21.3657C72.6618 21.1372 72.574 20.841 72.4809 20.4771C72.3878 20.8431 72.3 21.1393 72.2175 21.3657L71.5319 23.27H69.799L68.0597 18.4458H67.4631V17.4302ZM78.1684 16.7542C77.9716 16.5553 77.8732 16.3151 77.8732 16.0337C77.8732 15.7523 77.9716 15.5132 78.1684 15.3164C78.3673 15.1175 78.6074 15.0181 78.8888 15.0181C79.1703 15.0181 79.4093 15.1175 79.6061 15.3164C79.805 15.5132 79.9045 15.7523 79.9045 16.0337C79.9045 16.3151 79.805 16.5553 79.6061 16.7542C79.4093 16.9509 79.1703 17.0493 78.8888 17.0493C78.6074 17.0493 78.3673 16.9509 78.1684 16.7542ZM77.3654 17.4302H79.7775V22.2544H80.4123V23.27H77.3654V22.2544H78.0002V18.4458H77.3654V17.4302ZM85.1095 17.3032C85.4058 17.3032 85.665 17.3434 85.8871 17.4238C86.1093 17.5042 86.2913 17.6153 86.433 17.7571C86.5748 17.8967 86.6891 18.0755 86.7758 18.2935C86.8647 18.5093 86.926 18.742 86.9599 18.9917C86.9959 19.2393 87.0138 19.5228 87.0138 19.8423V22.2544H87.6486V23.27H84.6017V22.2544H85.2365V19.7153C85.2365 19.381 85.2058 19.1208 85.1445 18.9346C85.0852 18.7484 84.9985 18.6204 84.8842 18.5505C84.7721 18.4807 84.6187 18.4458 84.424 18.4458C84.2463 18.4458 84.0643 18.5209 83.8781 18.6711C83.6919 18.8214 83.5152 19.0308 83.3481 19.2996L83.3322 22.2544H83.967V23.27H80.9201V22.2544H81.5549V18.4458H80.9201V17.4302H82.891L83.3354 18.2903C83.4137 18.1485 83.5036 18.0216 83.6051 17.9094C83.7088 17.7952 83.8315 17.6915 83.9733 17.5984C84.1172 17.5032 84.2854 17.4302 84.478 17.3794C84.6705 17.3286 84.881 17.3032 85.1095 17.3032ZM94.3771 22.2544V23.27H91.5842V22.2544H92.1904L93.7138 20.3501L92.1904 18.4458H91.5842V17.4302H94.8849V18.4458H94.2216L95.2531 19.7344L96.2814 18.4458H95.5197V17.4302H98.3127V18.4458H97.6779L96.1545 20.3501L97.6779 22.2544H98.3127V23.27H95.0119V22.2544H95.6467L94.6183 20.9658L93.5868 22.2544H94.3771ZM100.417 21.864C100.557 22.0206 100.73 22.1465 100.937 22.2417C101.147 22.3348 101.351 22.3813 101.55 22.3813C102.005 22.3813 102.351 22.2607 102.588 22.0195C102.827 21.7762 102.946 21.4313 102.946 20.9849C102.946 20.2231 102.396 19.8423 101.296 19.8423V18.8267C101.544 18.8267 101.758 18.8076 101.94 18.7695C102.124 18.7293 102.271 18.6764 102.382 18.6108C102.492 18.5452 102.58 18.4627 102.648 18.3633C102.716 18.2617 102.761 18.158 102.785 18.0522C102.808 17.9443 102.82 17.8216 102.82 17.6841C102.82 17.2249 102.719 16.8779 102.518 16.6431C102.317 16.4061 101.994 16.2876 101.55 16.2876C101.351 16.2876 101.147 16.3352 100.937 16.4304C100.73 16.5235 100.557 16.6484 100.417 16.8049C100.667 16.8367 100.875 16.9488 101.042 17.1414C101.211 17.3318 101.296 17.555 101.296 17.811C101.296 18.0924 101.197 18.3326 100.998 18.5315C100.801 18.7283 100.562 18.8267 100.28 18.8267C100.084 18.8267 99.9038 18.7759 99.7409 18.6743C99.578 18.5706 99.4542 18.4331 99.3696 18.2617C99.2426 18.0226 99.1791 17.7666 99.1791 17.4937C99.1791 17.2715 99.2214 17.0525 99.3061 16.8367C99.3907 16.6208 99.5166 16.4198 99.6838 16.2336C99.8509 16.0453 100.049 15.8792 100.277 15.7354C100.506 15.5915 100.773 15.4783 101.08 15.3958C101.387 15.3132 101.713 15.272 102.058 15.272C102.367 15.272 102.653 15.2942 102.918 15.3386C103.182 15.3831 103.413 15.4455 103.61 15.5259C103.807 15.6042 103.983 15.6994 104.14 15.8115C104.296 15.9237 104.427 16.0453 104.53 16.1765C104.634 16.3077 104.72 16.4505 104.787 16.605C104.855 16.7594 104.904 16.915 104.933 17.0715C104.963 17.226 104.978 17.3879 104.978 17.5571V17.5635V17.5667V17.573V17.5762V17.5825V17.5857V17.592V17.5984V17.6016V17.6079V17.6111V17.6174V17.6206L104.975 17.627V17.6301V17.6365V17.6396V17.646V17.6492V17.6555V17.6587V17.665V17.6682L104.971 17.6746V17.6777V17.6841V17.6873V17.6936V17.6968V17.7031L104.968 17.7063V17.7095V17.7158V17.719V17.7253V17.7285L104.965 17.7349V17.738V17.7412V17.7476V17.7507L104.962 17.7571V17.7603V17.7634V17.7698L104.959 17.7729V17.7793V17.7825V17.7856L104.955 17.792V17.7952V17.8015V17.8047L104.952 17.8079V17.8142V17.8174V17.8206L104.949 17.8269V17.8301V17.8333L104.946 17.8396V17.8428V17.8459V17.8523L104.943 17.8555V17.8586V17.865L104.94 17.8682V17.8713V17.8777L104.936 17.8809V17.884V17.8872L104.933 17.8936V17.8967V17.8999L104.93 17.9062V17.9094V17.9126L104.927 17.9158V17.9221V17.9253L104.924 17.9285V17.9316L104.921 17.938V17.9412V17.9443L104.917 17.9475V17.9539L104.914 17.957V17.9602V17.9634L104.911 17.9697V17.9729L104.908 17.9761V17.9792V17.9856L104.905 17.9888V17.9919L104.902 17.9951V17.9983L104.898 18.0046V18.0078V18.011L104.895 18.0142V18.0173L104.892 18.0237V18.0269L104.889 18.03V18.0332L104.886 18.0364V18.0427V18.0459L104.882 18.0491V18.0522C104.724 18.4416 104.393 18.7727 103.889 19.0457C103.684 19.1557 103.466 19.2467 103.235 19.3186C103.517 19.363 103.77 19.4339 103.994 19.5312C104.22 19.6265 104.417 19.7471 104.584 19.8931C104.751 20.0391 104.879 20.2157 104.968 20.4231C105.059 20.6283 105.105 20.8579 105.105 21.1118C105.105 21.3488 105.071 21.5752 105.003 21.791C104.935 22.0047 104.824 22.211 104.67 22.4099C104.515 22.6067 104.323 22.7781 104.092 22.9241C103.862 23.068 103.572 23.1833 103.223 23.27C102.876 23.3547 102.487 23.397 102.058 23.397C101.713 23.397 101.387 23.3557 101.08 23.2732C100.773 23.1907 100.506 23.0775 100.277 22.9336C100.049 22.7897 99.8509 22.6247 99.6838 22.4385C99.5166 22.2502 99.3907 22.0481 99.3061 21.8323C99.2214 21.6165 99.1791 21.3975 99.1791 21.1753C99.1791 20.9023 99.2426 20.6463 99.3696 20.4072C99.4542 20.2358 99.578 20.0994 99.7409 19.9978C99.9038 19.8941 100.084 19.8423 100.28 19.8423C100.562 19.8423 100.801 19.9417 100.998 20.1406C101.197 20.3374 101.296 20.5765 101.296 20.8579C101.296 21.1139 101.211 21.3382 101.042 21.5308C100.875 21.7212 100.667 21.8323 100.417 21.864ZM112.024 17.1763C112.024 17.4577 111.924 17.6978 111.725 17.8967C111.528 18.0935 111.289 18.1919 111.008 18.1919C110.727 18.1919 110.486 18.0935 110.288 17.8967C110.091 17.6978 109.992 17.4577 109.992 17.1763C109.992 17.0324 110.02 16.897 110.075 16.77C110.132 16.641 110.211 16.5288 110.313 16.4336C110.222 16.3363 109.988 16.2876 109.611 16.2876C109.44 16.2876 109.282 16.3151 109.139 16.3701C108.997 16.4251 108.864 16.5172 108.739 16.6462C108.616 16.7732 108.51 16.9372 108.421 17.1382C108.332 17.3371 108.259 17.5878 108.202 17.8904C108.145 18.1908 108.109 18.5347 108.094 18.9219C108.264 18.7357 108.478 18.5886 108.739 18.4807C108.999 18.3728 109.29 18.3188 109.611 18.3188C110.007 18.3188 110.377 18.3823 110.722 18.5093C111.067 18.6362 111.362 18.8108 111.608 19.033C111.855 19.2551 112.05 19.5238 112.192 19.8391C112.334 20.1544 112.404 20.494 112.404 20.8579C112.404 21.0251 112.384 21.1922 112.344 21.3594C112.306 21.5265 112.245 21.6937 112.16 21.8608C112.078 22.028 111.976 22.1867 111.855 22.3369C111.735 22.4871 111.587 22.6278 111.411 22.759C111.235 22.8881 111.042 23.0002 110.83 23.0955C110.621 23.1886 110.379 23.2616 110.103 23.3145C109.83 23.3695 109.54 23.397 109.231 23.397C108.771 23.397 108.359 23.3356 107.993 23.2129C107.629 23.0902 107.318 22.9146 107.06 22.686C106.804 22.4554 106.591 22.1729 106.422 21.8386C106.253 21.5043 106.128 21.1309 106.047 20.7183C105.969 20.3035 105.93 19.8455 105.93 19.344C105.93 18.8637 105.985 18.4109 106.095 17.9856C106.207 17.5582 106.365 17.1805 106.568 16.8525C106.771 16.5246 107.008 16.2421 107.279 16.0051C107.552 15.766 107.854 15.5841 108.186 15.4592C108.521 15.3344 108.869 15.272 109.231 15.272C110.155 15.272 110.851 15.4423 111.319 15.783C111.789 16.1215 112.024 16.5859 112.024 17.1763ZM108.107 20.1279C108.13 20.5448 108.172 20.9002 108.231 21.1943C108.292 21.4884 108.372 21.7212 108.469 21.8926C108.568 22.064 108.679 22.1888 108.802 22.2671C108.927 22.3433 109.07 22.3813 109.231 22.3813C109.358 22.3813 109.472 22.3665 109.573 22.3369C109.675 22.3052 109.761 22.2639 109.83 22.2131C109.902 22.1602 109.964 22.0925 110.015 22.01C110.065 21.9275 110.106 21.8429 110.135 21.7561C110.165 21.6694 110.188 21.5657 110.205 21.4451C110.222 21.3245 110.233 21.2113 110.237 21.1055C110.243 20.9976 110.246 20.8727 110.246 20.731C110.246 20.4686 110.217 20.2443 110.157 20.0581C110.1 19.8698 110.018 19.7249 109.91 19.6233C109.802 19.5196 109.682 19.4456 109.551 19.4011C109.42 19.3567 109.271 19.3345 109.104 19.3345C108.915 19.3345 108.731 19.4075 108.551 19.5535C108.372 19.6995 108.223 19.891 108.107 20.1279Z" fill="white"/>
<defs>
<linearGradient id="paint0_linear_1_49" x1="66.33" y1="59.9184" x2="66.33" y2="2.35678" gradientUnits="userSpaceOnUse">
<stop/>
<stop offset="1"/>
</linearGradient>
</defs>
</svg>
